<svg height="1080" width="1920"
    xmlns="http://www.w3.org/2000/svg" xmlns:xlink="http://www.w3.org/1999/xlink">
    <!--Full HD Resulution default-->
    <defs>
        <g id="0">
            <rect width="100%" height="100%" fill="#7f8c8d" /> 
        </g>

        <g id="1">
            <circle cx="960" cy="540" r="500" stroke="black" stroke-width="3" fill="#ecf0f1" />

            <circle cx="960" cy="50" r="5" stroke-width="0" fill="#e67e22" transform="rotate(30,960,540)"/>
            <circle cx="960" cy="50" r="5" stroke-width="0" fill="#e67e22" transform="rotate(60,960,540)"/>
            <circle cx="960" cy="50" r="5" stroke-width="0" fill="#e67e22" transform="rotate(90,960,540)"/>
            <circle cx="960" cy="50" r="5" stroke-width="0" fill="#e67e22" transform="rotate(120,960,540)"/>
            <circle cx="960" cy="50" r="5" stroke-width="0" fill="#e67e22" transform="rotate(150,960,540)"/>
            <circle cx="960" cy="50" r="5" stroke-width="0" fill="#e67e22" transform="rotate(180,960,540)"/>
            <circle cx="960" cy="50" r="5" stroke-width="0" fill="#e67e22" transform="rotate(210,960,540)"/>
            <circle cx="960" cy="50" r="5" stroke-width="0" fill="#e67e22" transform="rotate(240,960,540)"/>
            <circle cx="960" cy="50" r="5" stroke-width="0" fill="#e67e22" transform="rotate(270,960,540)"/>
            <circle cx="960" cy="50" r="5" stroke-width="0" fill="#e67e22" transform="rotate(300,960,540)"/>
            <circle cx="960" cy="50" r="5" stroke-width="0" fill="#e67e22" transform="rotate(330,960,540)"/>
            <circle cx="960" cy="50" r="5" stroke-width="0" fill="#e67e22" transform="rotate(360,960,540)"/>
            
            <text  text-anchor="middle" x="1180" y="233" font-size="8em" fill="#7f8c8d">1</text>
            <text  text-anchor="middle" x="1341" y="380" font-size="8em"  fill="#7f8c8d">2</text>
            <text  text-anchor="middle" x="1400" y="580" font-size="8em"  fill="#7f8c8d">3</text>
            <text  text-anchor="middle" x="1341" y="780" font-size="8em"  fill="#7f8c8d">4</text>
            <text  text-anchor="middle" x="1180" y="926" font-size="8em"  fill="#7f8c8d">5</text>
            <text  text-anchor="middle" x="960" y="980" font-size="8em"  fill="#7f8c8d">6</text>
            <text  text-anchor="middle" x="740" y="926" font-size="8em"  fill="#7f8c8d">7</text>
            <text  text-anchor="middle" x="578" y="780" font-size="8em"  fill="#7f8c8d">8</text>
            <text  text-anchor="middle" x="540" y="580" font-size="8em"  fill="#7f8c8d">9</text>
            <text  text-anchor="middle" x="578" y="380" font-size="8em"  fill="#7f8c8d">10</text>
            <text  text-anchor="middle" x="740" y="233" font-size="8em"  fill="#7f8c8d">11</text>
            <text  text-anchor="middle" x="960" y="180" font-size="8em"  fill="#7f8c8d">12</text>
            
        </g>

    </defs>

    <use xlink:href="#0"/>
    <use xlink:href="#1"/>
    
</svg>